<svg xmlns="http://www.w3.org/2000/svg" width="100%" viewBox="58.2 41.8 885.5 885.5">
<path fill="#4EB484" d="M676.843018,874.959229
	C662.057373,880.014954 647.334900,883.682678 632.138916,884.945007
	C620.133545,885.942322 608.080322,886.860657 596.044617,886.909485
	C543.888123,887.120789 491.725159,887.429016 439.575348,886.801575
	C416.792450,886.527466 396.534668,878.267029 379.678284,862.263367
	C360.475800,844.032471 340.993317,826.095642 321.564301,808.104675
	C310.171417,797.555054 298.607483,787.190430 287.188232,776.669006
	C269.306885,760.193481 251.505798,743.630859 233.626495,727.153076
	C222.081696,716.513367 210.649551,705.738770 198.803238,695.443176
	C190.667145,688.372131 182.980530,681.031250 177.292587,671.804626
	C169.152206,658.599915 164.020493,644.426270 164.016739,628.743896
	C163.986771,503.599609 163.948868,378.455261 164.053635,253.311050
	C164.069855,233.933762 169.083633,215.474075 175.868927,197.447281
	C181.606750,182.203293 189.358688,168.007050 199.083939,155.023621
	C212.917618,136.555374 229.520218,120.960411 249.336395,108.895241
	C269.961792,96.337372 292.344147,88.501045 315.961578,84.174194
	C323.535553,82.786606 331.344818,82.101883 339.048035,82.089630
	C427.531982,81.948952 516.017639,81.730789 604.499512,82.183182
	C627.548279,82.301025 649.833679,87.903961 670.960815,97.465477
	C693.554321,107.690659 713.515381,121.694473 730.316406,139.922211
	C744.616089,155.436172 756.129395,172.883942 765.079285,192.068695
	C773.762085,210.680969 780.156433,229.993683 782.888245,250.313232
	C784.879456,265.123535 787.079346,280.137482 786.629089,294.983093
	C786.114807,311.939941 783.434692,328.928131 780.491150,345.691193
	C776.232544,369.944275 766.405212,392.396149 755.750000,414.435822
	C752.978943,420.167480 749.778625,425.738678 746.272095,431.051361
	C743.879944,434.675598 744.359924,437.179016 747.379761,439.910553
	C755.590759,447.337616 764.171692,454.429230 771.769165,462.446777
	C792.143311,483.947388 808.124451,508.523010 818.741394,536.152039
	C824.506897,551.155945 828.914246,566.804626 832.471619,582.494080
	C835.176575,594.423950 835.686096,606.865234 836.951965,619.101746
	C837.563049,625.009155 838.083435,630.981934 837.900269,636.902161
	C837.635742,645.451782 837.080261,654.032043 835.950134,662.506042
	C834.310059,674.804443 832.702332,687.173767 829.869202,699.228088
	C826.894104,711.886353 823.699463,724.749939 818.419128,736.547302
	C811.038513,753.037048 802.712585,769.331909 792.782776,784.385437
	C783.616821,798.280945 772.584900,811.190552 760.952026,823.150452
	C747.111267,837.380188 731.027222,849.213013 713.212952,858.244629
	C701.432678,864.217102 689.245178,869.386292 676.843018,874.959229
M319.357697,173.887268
	C300.058441,178.489700 283.780670,187.930908 270.473083,202.888367
	C254.902740,220.389175 247.221451,240.991364 247.153229,263.909180
	C246.816498,377.069427 246.988632,490.231262 247.042389,603.392517
	C247.044495,607.822754 247.459427,612.280701 248.043381,616.677673
	C249.789902,629.828125 260.958618,640.187378 275.179321,640.095398
	C317.175598,639.823730 359.174713,639.959229 401.172638,640.015808
	C408.463043,640.025635 414.968231,642.176636 420.226074,647.655396
	C425.226746,652.866394 426.967682,659.184692 426.978943,666.065796
	C427.042206,704.730469 427.023956,743.395325 426.975525,782.060059
	C426.969208,787.111511 428.655762,791.148376 432.210632,794.859558
	C437.005798,799.865784 442.978119,800.947388 449.283112,800.957153
	C498.947296,801.034241 548.612793,801.181580 598.275085,800.864014
	C609.745850,800.790710 621.297058,799.613159 632.652588,797.894958
	C660.523254,793.677856 684.269409,780.708435 704.722046,761.672363
	C717.936646,749.372986 728.462524,734.851440 736.575012,718.754883
	C747.414612,697.247070 754.477600,674.386353 755.714600,650.349976
	C756.518616,634.726685 756.089783,618.731262 753.628662,603.315186
	C749.008850,574.377930 738.277222,547.698608 718.719910,525.124390
	C705.669922,510.061371 691.143188,497.122650 673.389526,487.570526
	C646.258362,472.972992 640.317932,443.760010 654.613220,417.960754
	C663.945129,401.119324 674.212402,384.765900 682.905334,367.608490
	C693.425232,346.845428 699.504211,324.636780 699.972961,301.155609
	C700.113037,294.138763 700.427185,287.083679 699.888367,280.105774
	C699.246643,271.795105 698.625305,263.322357 696.499939,255.316757
	C690.078003,231.127625 679.091370,209.637466 659.058167,193.381546
	C642.012268,179.549667 622.804626,171.280075 601.069580,171.170502
	C517.575684,170.749573 434.078217,170.917145 350.582642,171.107330
	C340.412476,171.130508 330.245697,172.621460 319.357697,173.887268
z M522.980835,377.162354
	C530.815918,377.776520 538.994629,377.162750 546.419861,379.241150
	C566.556763,384.877777 574.652222,404.897491 569.657288,422.707703
	C565.308411,438.214478 551.621521,448.004211 535.711548,448.002472
	C476.604797,447.996063 417.497711,447.895203 358.391449,448.066833
	C341.698700,448.115326 325.487671,434.907562 323.790833,417.146759
	C322.309448,401.641052 328.023987,390.089996 340.623993,382.303925
	C345.882904,379.054230 352.843323,377.632812 359.152802,377.209412
	C370.754486,376.430847 382.447052,377.006653 394.948059,377.238586
	C403.524414,377.358643 411.254486,377.258148 418.984558,377.157654
	C427.025085,377.113464 435.065582,377.069244 443.950989,377.247131
	C453.855743,377.366882 462.915649,377.264618 471.975525,377.162323
	C477.687103,377.117279 483.398712,377.072266 489.955750,377.245422
	C501.527771,377.363190 512.254333,377.262787 522.980835,377.162354
z M559.629761,321.749939
	C550.930115,328.159760 541.440918,330.099976 531.122314,330.072845
	C474.299103,329.923492 417.474487,330.173004 360.652100,329.908386
	C340.190857,329.813110 326.277893,319.145538 323.031708,297.507019
	C320.746765,282.276062 334.527954,263.493073 349.847900,261.065674
	C354.219879,260.372925 358.695648,260.048615 363.124390,260.043640
	C421.447662,259.978119 479.771118,260.047363 538.094360,259.969757
	C554.548767,259.947845 569.353333,273.603943 571.188049,289.667084
	C572.653015,302.493958 568.666199,312.683167 559.629761,321.749939
z M518.784180,520.508545
	C525.532166,541.729370 512.391907,563.320129 493.057007,566.456116
	C491.279114,566.744507 489.467407,566.976501 487.671265,566.977661
	C444.045654,567.006348 400.420044,567.034546 356.794495,566.981140
	C341.621826,566.962585 326.669373,555.336731 323.996887,539.083679
	C320.695801,519.007996 331.980682,502.164948 349.803223,497.665863
	C351.523743,497.231506 353.348785,497.028351 355.125580,497.026917
	C397.585571,496.992279 440.047882,497.239075 482.504150,496.839966
	C493.808807,496.733734 503.595306,499.108002 511.032166,507.731140
	C514.156250,511.353638 516.130127,515.968079 518.784180,520.508545
z M616.056885,690.065613
	C598.167053,682.880432 588.057007,670.391357 584.735413,651.375916
	C581.040222,630.221802 597.532837,602.745972 622.104187,598.828552
	C637.804443,596.325500 651.624939,599.546753 663.201111,609.987305
	C671.748840,617.696533 676.795105,627.743103 678.077393,639.565063
	C679.301758,650.853577 677.401428,661.118164 671.135986,670.770264
	C663.669922,682.271973 653.535706,689.317566 640.099182,692.059937
	C631.932556,693.726746 624.169434,692.808472 616.056885,690.065613
z"/>
</svg>
